<?xml version="1.0" standalone="no"?>
<!DOCTYPE svg PUBLIC "-//W3C//DTD SVG 20010904//EN"
 "http://www.w3.org/TR/2001/REC-SVG-20010904/DTD/svg10.dtd">
<svg version="1.0" xmlns="http://www.w3.org/2000/svg"
 width="464.000000pt" height="464.000000pt" viewBox="0 0 464.000000 464.000000"
 preserveAspectRatio="xMidYMid meet">
<metadata>
Created by potrace 1.14, written by Peter Selinger 2001-2017
</metadata>
<g transform="translate(0.000000,464.000000) scale(0.100000,-0.100000)"
fill="#000000" stroke="none">
<path d="M2065 4608 c-427 -48 -874 -239 -1205 -516 -444 -371 -725 -878 -812
-1467 -17 -118 -17 -482 0 -600 116 -781 574 -1418 1267 -1760 320 -158 650
-235 1010 -235 1170 0 2146 867 2285 2030 6 52 11 172 11 265 0 192 -11 306
-48 480 -148 711 -645 1323 -1313 1619 -206 92 -463 161 -692 185 -114 13
-389 12 -503 -1z m615 -72 c52 -9 148 -30 213 -47 934 -242 1612 -1068 1666
-2029 36 -637 -183 -1231 -623 -1688 -336 -349 -763 -572 -1261 -659 -76 -13
-158 -17 -345 -17 -214 -1 -261 2 -375 23 -480 86 -883 296 -1220 636 -409
413 -645 987 -645 1570 0 583 236 1157 645 1570 374 377 817 589 1375 659 82
10 478 -3 570 -18z"/>
<path d="M1637 3454 c-4 -4 -7 -92 -7 -196 l0 -188 210 0 210 0 -2 193 -3 192
-201 3 c-110 1 -203 -1 -207 -4z"/>
<path d="M2668 3296 l-208 -121 0 -147 0 -148 -90 0 -90 0 0 -170 0 -170 90 0
90 0 0 -392 c0 -414 8 -540 37 -620 53 -149 227 -224 457 -199 89 10 220 44
230 59 5 9 -28 310 -36 317 -3 4 -30 -1 -59 -9 -72 -22 -141 -21 -169 2 -34
28 -38 83 -39 485 l-1 357 124 0 c68 0 131 3 140 6 14 5 16 30 16 170 l0 163
-137 3 -138 3 -5 266 -5 265 -207 -120z"/>
<path d="M1630 2073 c0 -523 -4 -821 -10 -845 -7 -23 -23 -46 -43 -60 -28 -20
-44 -23 -120 -23 -70 0 -88 -3 -91 -15 -14 -47 -67 -333 -63 -337 15 -14 137
-34 242 -40 93 -4 134 -2 182 10 171 44 270 149 304 322 8 42 13 314 16 928
l4 867 -210 0 -211 0 0 -807z"/>
</g>
</svg>
