<?xml version="1.0" standalone="no"?>
<!DOCTYPE svg PUBLIC "-//W3C//DTD SVG 20010904//EN"
 "http://www.w3.org/TR/2001/REC-SVG-20010904/DTD/svg10.dtd">
<svg version="1.0" xmlns="http://www.w3.org/2000/svg"
 width="466.000000pt" height="466.000000pt" viewBox="0 0 466.000000 466.000000"
 preserveAspectRatio="xMidYMid meet">
<metadata>
Created by potrace 1.14, written by Peter Selinger 2001-2017
</metadata>
<g transform="translate(0.000000,466.000000) scale(0.100000,-0.100000)"
fill="#000000" stroke="none">
<path d="M2120 4634 c-210 -25 -404 -68 -565 -124 -125 -44 -371 -165 -485
-240 -545 -358 -908 -911 -1021 -1555 -27 -153 -36 -447 -20 -606 89 -859 640
-1597 1429 -1913 286 -115 553 -166 867 -166 314 0 581 51 867 166 789 316
1340 1054 1429 1913 16 159 7 453 -20 606 -113 644 -476 1197 -1021 1555 -113
74 -360 196 -483 239 -250 87 -452 122 -732 126 -115 2 -226 1 -245 -1z m550
-99 c228 -38 415 -97 619 -196 253 -122 437 -256 636 -461 353 -364 556 -799
616 -1318 15 -132 6 -450 -16 -580 -107 -629 -456 -1165 -985 -1513 -226 -148
-526 -269 -807 -324 -129 -25 -156 -27 -408 -27 -254 0 -278 2 -408 27 -934
184 -1633 901 -1792 1837 -22 130 -31 448 -16 580 48 417 189 780 428 1102 93
124 276 315 393 408 331 264 737 433 1151 479 122 14 475 6 589 -14z"/>
<path d="M1630 3265 l0 -195 194 0 c107 0 201 3 210 6 14 5 16 32 16 195 l0
189 -210 0 -210 0 0 -195z"/>
<path d="M2668 3306 l-208 -121 0 -147 0 -148 -90 0 -90 0 0 -170 0 -170 89 0
89 0 4 -462 c4 -449 5 -465 27 -531 40 -123 132 -192 286 -217 104 -17 282 3
378 44 l33 14 -17 157 c-10 86 -20 159 -22 161 -2 2 -39 -5 -83 -16 -90 -23
-121 -20 -155 16 l-24 26 -3 404 -3 404 136 0 135 0 0 170 0 170 -135 0 -135
0 -2 269 -3 268 -207 -121z"/>
<path d="M1629 2143 c0 -412 -4 -787 -7 -835 -7 -82 -9 -90 -40 -120 -32 -32
-34 -33 -125 -34 l-92 0 -31 -145 c-17 -79 -34 -158 -37 -176 l-6 -31 72 -19
c54 -13 108 -18 217 -18 128 1 152 3 203 24 114 45 193 127 226 236 34 108 41
302 41 1103 l0 762 -210 0 -210 0 -1 -747z"/>
</g>
</svg>
